<?xml version="1.0" encoding="UTF-8"?>
<svg width="24px" height="15px" viewBox="0 0 24 15" version="1.1" xmlns="http://www.w3.org/2000/svg" xmlns:xlink="http://www.w3.org/1999/xlink">
    <!-- Generator: Sketch 53.2 (72643) - https://sketchapp.com -->
    <title>BEHANCE</title>
    <desc>Created with Sketch.</desc>
    <g id="Page-1" stroke="none" stroke-width="1" fill="none" fill-rule="evenodd">
        <g id="Artboard" transform="translate(-1254.000000, -4656.000000)" fill="#B0B0B0" fill-rule="nonzero">
            <g id="Footer" transform="translate(0.000000, 4275.000000)">
                <g id="BEHANCE" transform="translate(1254.000000, 381.000000)">
                    <path d="M22,2 L15,2 L15,0 L22,0 L22,2 Z M23.726,12 C23.284,13.297 21.697,15 18.625,15 C15.551,15 13.061,13.271 13.061,9.325 C13.061,5.415 15.386,3.405 18.527,3.405 C21.609,3.405 23.491,5.187 23.902,7.831 C23.98,8.337 24.011,9.019 23.997,9.971 L15.97,9.971 C16.1,13.182 19.453,13.283 20.558,12 L23.726,12 Z M16.04,8 L21.005,8 C20.9,6.453 19.869,5.781 18.528,5.781 C17.062,5.781 16.251,6.549 16.04,8 Z M6.466,14.988 L-8.8817842e-16,14.988 L-8.8817842e-16,0.021 L6.953,0.021 C12.429,0.102 12.533,5.465 9.673,6.927 C13.134,8.187 13.25,14.988 6.466,14.988 Z M3,6 L6.584,6 C9.092,6 9.49,3 6.272,3 L3,3 L3,6 Z M6.391,9 L3,9 L3,12.016 L6.341,12.016 C9.396,12.016 9.209,9 6.391,9 L6.391,9 Z" id="Shape"></path>
                </g>
            </g>
        </g>
    </g>
</svg>